<?xml version="1.0" encoding="UTF-8"?>
<!DOCTYPE svg PUBLIC "-//W3C//DTD SVG 1.1//EN" "http://www.w3.org/Graphics/SVG/1.1/DTD/svg11.dtd">
<!-- Creator: CorelDRAW 2018 (64-Bit) -->
<svg xmlns="http://www.w3.org/2000/svg" xml:space="preserve" width="167.799mm" height="49.6033mm" version="1.1" style="shape-rendering:geometricPrecision; text-rendering:geometricPrecision; image-rendering:optimizeQuality; fill-rule:evenodd; clip-rule:evenodd"
viewBox="0 0 16778.82 4960.02"
 xmlns:xlink="http://www.w3.org/1999/xlink">
 <defs>
  <style type="text/css">
   <![CDATA[
    .fil0 {fill:#201E1E}
   ]]>
  </style>
 </defs>
 <g id="Layer_x0020_1">
  <metadata id="CorelCorpID_0Corel-Layer"/>
  <g id="_2202087601776">
   <path class="fil0" d="M5503.49 35.6c-139.42,0 -189.85,50.43 -189.85,109.75 0,103.82 112.72,68.23 112.72,201.72 0,103.82 -231.38,881.02 -231.38,1231.06 0,453.86 261.04,664.48 892.88,664.48 548.79,0 768.3,-243.24 863.23,-388.61 189.85,-290.7 189.85,-732.7 237.32,-1213.25 56.37,-560.65 195.79,-320.38 195.79,-501.33 0,-71.2 -23.74,-103.82 -154.26,-103.82l-311.47 0c-109.75,0 -169.09,41.53 -169.09,115.69 0,94.92 118.66,50.43 118.66,246.2 0,296.64 -47.47,688.22 -121.62,1076.81 -65.27,338.17 -269.94,507.26 -483.53,507.26 -219.52,0 -367.84,-160.19 -367.84,-379.71 0,-376.73 183.92,-1032.31 228.42,-1222.16 35.6,-148.32 175.02,-121.62 175.02,-237.31 0,-68.24 -47.47,-106.79 -172.05,-106.79l-622.95 0zm2211.83 1038.25c-154.25,795 -183.92,886.95 -183.92,981.88 0,97.89 47.47,186.89 154.26,186.89 142.38,0 866.19,-118.65 866.19,-296.64 0,-71.2 -32.63,-124.59 -97.88,-124.59 -53.4,0 -106.79,29.67 -166.12,29.67 -53.4,0 -91.96,-23.73 -91.96,-83.06 0,-88.98 35.6,-195.78 136.45,-694.14l160.19 0c109.76,0 183.92,-62.3 183.92,-157.22 0,-68.23 -38.57,-121.62 -124.59,-121.62l-166.12 0c47.47,-237.32 71.2,-326.31 71.2,-388.61 0,-62.29 -47.46,-91.95 -177.98,-91.95 -332.24,0 -207.66,433.09 -554.73,480.56 -169.08,23.73 -222.48,68.23 -222.48,160.18 0,77.14 38.56,118.66 142.38,118.66l71.2 0zm1280.38 0c-154.25,795 -183.92,886.95 -183.92,981.88 0,97.89 47.47,186.89 154.26,186.89 142.38,0 866.19,-118.65 866.19,-296.64 0,-71.2 -32.63,-124.59 -97.88,-124.59 -53.4,0 -106.79,29.67 -166.12,29.67 -53.4,0 -91.96,-23.73 -91.96,-83.06 0,-88.98 35.6,-195.78 136.45,-694.14l160.19 0c109.76,0 183.92,-62.3 183.92,-157.22 0,-68.23 -38.57,-121.62 -124.59,-121.62l-166.12 0c47.47,-237.32 71.2,-326.31 71.2,-388.61 0,-62.29 -47.46,-91.95 -177.98,-91.95 -332.24,0 -207.66,433.09 -554.73,480.56 -169.08,23.73 -222.48,68.23 -222.48,160.18 0,77.14 38.56,118.66 142.38,118.66l71.2 0zm1049 619.98c0,308.5 201.72,548.79 519.12,548.79 246.21,0 450.9,-157.22 566.58,-367.84l5.94 5.93c-11.87,65.27 -23.74,130.52 -23.74,195.79 0,88.99 47.47,166.12 142.39,166.12 97.89,0 628.88,-177.99 628.88,-281.81 0,-130.52 -213.59,-35.6 -213.59,-204.68 0,-296.64 183.92,-860.27 183.92,-904.76 0,-56.36 -65.26,-91.95 -115.68,-91.95 -115.69,0 -290.71,121.62 -379.71,183.92 -83.05,-127.56 -219.52,-183.92 -370.8,-183.92 -495.4,0 -943.32,439.03 -943.32,934.42zm634.81 86.02c0,-213.59 154.25,-789.07 373.77,-789.07 59.33,0 112.72,47.47 112.72,177.99 0,213.59 -154.25,795 -373.77,795 -59.33,0 -112.72,-53.4 -112.72,-183.92zm1885.53 427.16c100.85,0 127.55,-38.57 157.22,-183.92 148.32,-732.7 269.94,-895.85 355.97,-895.85 59.33,0 80.09,38.56 80.09,94.92 0,94.92 -160.19,720.83 -160.19,895.85 0,59.33 35.6,88.99 106.79,88.99l314.44 0c148.32,0 154.25,-20.77 183.92,-148.32 100.85,-456.83 219.51,-931.45 391.57,-931.45 44.5,0 77.13,38.56 77.13,94.92 0,94.92 -160.19,720.83 -160.19,845.43 0,121.62 53.4,175.02 124.59,175.02 172.05,0 759.4,-160.19 759.4,-308.51 0,-112.72 -219.52,-44.5 -219.52,-189.85 0,-121.62 130.52,-510.22 130.52,-637.78 0,-225.45 -222.48,-347.07 -424.19,-347.07 -198.75,0 -406.4,136.45 -554.73,477.59l-5.93 -5.93c29.67,-91.96 32.63,-112.72 35.6,-169.09 8.9,-172.05 -157.22,-302.57 -329.27,-302.57 -281.81,0 -477.6,177.99 -643.72,492.42l-5.93 -5.93c17.8,-130.52 29.67,-207.65 29.67,-281.81 0,-86.02 -17.8,-204.68 -127.56,-204.68 0,0 -608.11,166.12 -608.11,314.44 0,124.59 160.19,41.53 160.19,204.68 0,139.42 -160.19,786.1 -160.19,869.17 0,47.46 29.67,59.33 106.79,59.33l385.64 0zm3152.18 -1966.74c0,-139.42 -127.55,-240.27 -314.43,-240.27 -246.21,0 -385.64,160.19 -385.64,290.71 0,106.78 91.95,183.92 225.45,183.92 23.73,0 47.46,-11.87 65.26,-11.87 5.94,0 11.87,5.93 11.87,11.87 0,77.13 -261.04,266.97 -261.04,332.23 0,38.57 32.63,65.27 77.13,65.27 133.49,0 581.41,-341.14 581.41,-631.85zm-514.3 1649.33c0,216.56 350.04,353.01 706.01,353.01 409.36,0 830.6,-213.59 830.6,-545.83 0,-444.96 -735.67,-350.03 -735.67,-590.31 0,-68.23 71.2,-115.69 180.96,-115.69 293.67,0 112.72,269.94 403.43,269.94 103.82,0 186.88,-71.19 186.88,-177.98 0,-204.69 -296.64,-323.34 -628.88,-323.34 -474.62,0 -777.2,243.24 -777.2,525.06 0,424.19 694.15,329.27 694.15,581.41 0,74.17 -65.27,145.35 -234.35,145.35 -358.94,0 -139.42,-329.27 -421.23,-329.27 -112.72,0 -204.69,94.92 -204.69,207.65z"/>
   <path class="fil0" d="M5476.26 4477.63l-162.9 0 0 -1159.72 -175.05 0 0 -145.88 167.76 0 0 -35.66c0,-138.18 35.25,-240.69 104.94,-307.15 70.11,-66.46 177.49,-99.68 322.15,-99.68l15.4 0 0 150.74c-100.09,1.62 -171,21.48 -212.34,59.98 -41.74,38.09 -62.41,103.73 -62.41,196.12l0 35.66 274.74 0 0 145.88 -272.3 0 0 1159.72zm829.37 -1305.6l165.32 0 0 692.92c0,177.89 28.77,303.91 86.71,377.66 57.55,74.16 152.77,111.03 284.87,111.03 75.37,0 141.41,-15.4 198.15,-45.79 57.14,-30.4 102.92,-74.57 137.77,-132.1 19.86,-34.04 34.04,-74.16 42.95,-120.35 8.51,-46.6 12.97,-126.83 12.97,-241.5l0 -641.86 167.76 0 0 1305.6 -167.76 0 0 -141.82c-50.65,62 -107.38,106.56 -169.78,134.12 -62.41,27.96 -138.18,41.74 -226.93,41.74 -188.42,0 -324.17,-50.65 -407.23,-152.36 -83.06,-101.7 -124.8,-270.68 -124.8,-506.52l0 -680.76zm1929.11 1305.6l-170.19 0 0 -1305.6 158.44 0 0 151.15c40.92,-58.36 85.49,-100.49 134.12,-127.64 48.22,-27.16 104.95,-41.34 169.38,-42.96l1.21 182.35c-104.54,9.32 -179.91,40.93 -224.89,94.41 -45.39,53.49 -68.08,140.2 -68.08,260.55l0 787.73zm839.5 -1305.6l162.89 0 0 147.9c51.47,-59.16 111.03,-103.32 178.7,-131.69 67.68,-28.77 145.07,-42.95 232.2,-42.95 96.03,0 181.13,17.83 256.09,53.49 74.56,35.66 133.72,86.71 177.48,153.17 29.99,46.6 51.47,101.7 64.84,164.51 12.97,62.82 19.45,155.61 19.45,278.38l0 682.79 -165.33 0 0 -731.41c0,-154.38 -29.58,-266.22 -88.33,-335.92 -59.16,-69.7 -153.57,-104.54 -283.24,-104.54 -76.18,0 -142.63,15.4 -200.18,45.79 -57.14,30.4 -102.51,74.16 -135.74,131.29 -20.67,35.26 -35.26,76.18 -43.36,121.56 -8.51,45.39 -12.57,124.8 -12.57,237.87l0 635.37 -162.89 0 0 -1305.6zm1926.68 -153.17l-167.76 0 0 -269.87 167.76 0 0 269.87zm-167.76 1458.77l0 -1305.6 167.76 0 0 1305.6 -167.76 0zm951.74 0l0 -1137.84 -247.99 0 0 -167.76 247.99 0 0 -423.04 167.75 0 0 423.04 247.99 0 0 167.76 -247.99 0 0 1137.84 -167.75 0zm944.04 -1305.6l165.32 0 0 692.92c0,177.89 28.77,303.91 86.71,377.66 57.55,74.16 152.77,111.03 284.87,111.03 75.37,0 141.41,-15.4 198.15,-45.79 57.14,-30.4 102.92,-74.57 137.77,-132.1 19.86,-34.04 34.04,-74.16 42.95,-120.35 8.51,-46.6 12.97,-126.83 12.97,-241.5l0 -641.86 167.76 0 0 1305.6 -167.76 0 0 -141.82c-50.65,62 -107.38,106.56 -169.78,134.12 -62.41,27.96 -138.18,41.74 -226.93,41.74 -188.42,0 -324.17,-50.65 -407.23,-152.36 -83.06,-101.7 -124.8,-270.68 -124.8,-506.52l0 -680.76zm1929.11 1305.6l-170.19 0 0 -1305.6 158.44 0 0 151.15c40.92,-58.36 85.49,-100.49 134.12,-127.64 48.22,-27.16 104.95,-41.34 169.38,-42.96l1.21 182.35c-104.54,9.32 -179.91,40.93 -224.89,94.41 -45.39,53.49 -68.08,140.2 -68.08,260.55l0 787.73zm2120.78 -600.52l-1179.17 0c10.13,142.23 62,257.3 154.38,344.83 92.79,87.93 208.29,131.7 346.87,131.7 98.46,0 186.8,-25.53 265,-76.59 78.62,-51.06 138.99,-121.97 181.95,-212.74l189.64 0c-59.98,144.66 -144.66,256.09 -253.26,333.49 -109,77.4 -235.02,116.29 -378.06,116.29 -190.05,0 -350.92,-67.67 -482.21,-203.01 -131.28,-135.34 -196.93,-298.24 -196.93,-487.88 0,-198.96 64.43,-363.07 192.88,-492.74 128.45,-130.07 292.97,-194.91 493.15,-194.91 196.12,0 356.18,67.68 480.17,202.61 123.59,134.93 185.59,310.39 185.59,526.78l0 12.16zm-184.78 -145.88c-31.61,-145.06 -89.95,-254.47 -174.64,-327.82 -84.69,-73.34 -195.32,-109.81 -331.47,-109.81 -126.83,0 -234.22,39.31 -322.14,118.32 -87.53,78.62 -141.42,185.19 -161.28,319.31l989.53 0z"/>
   <polygon class="fil0" points="-0,54.05 -0,729.52 981.97,729.52 981.97,2032.94 1657.45,2032.94 1657.45,54.05 "/>
   <polygon class="fil0" points="2324.96,54.05 2324.96,2032.94 3000.44,2032.94 3000.44,729.52 3974.45,729.52 3974.45,54.05 "/>
   <path class="fil0" d="M2022.29 4959.7c1076.23,-18.9 1952.01,-910.09 1952.01,-1986.83l0 -649.54 -683.56 0 0 649.54c0,706.31 -574.38,1291.02 -1280.55,1303.42 -348.45,6.02 -678.65,-126.21 -929.49,-372.8 -256.11,-251.64 -397.11,-588.02 -397.11,-947.15l0 -633.01 -683.6 0 0 633.01c0,544.01 213.68,1053.5 601.55,1434.73 382.5,375.96 887.07,578.02 1420.74,568.62z"/>
   <path class="fil0" d="M1991.36 3986.01c561.02,0 1017.43,-456.43 1017.43,-1017.43l0 -645.29 -683.59 0 0 645.29c0,184.09 -149.76,333.85 -333.84,333.85 -90.44,0 -172.18,-33.88 -235.91,-97.79 -64.07,-63.89 -97.93,-145.6 -97.93,-236.06l0 -645.29 -683.56 0 0 645.29c0,271.84 105.86,527.3 298.05,719.49 192.22,192.05 447.67,297.93 719.34,297.93z"/>
  </g>
 </g>
</svg>
